<svg xmlns="http://www.w3.org/2000/svg" viewBox="0 0 240 340" preserveAspectRatio="none">
  <defs>
    <linearGradient id="bg" x1="0" y1="0" x2="1" y2="1">
      <stop offset="0" stop-color="#101a27"/>
      <stop offset="0.55" stop-color="#05090f"/>
      <stop offset="1" stop-color="#02050a"/>
    </linearGradient>
    <linearGradient id="gold" x1="0" y1="0" x2="1" y2="1">
      <stop offset="0" stop-color="#ffe17b"/>
      <stop offset="0.45" stop-color="#c49a2c"/>
      <stop offset="1" stop-color="#8f6b17"/>
    </linearGradient>
    <linearGradient id="shine" x1="0" y1="0" x2="1" y2="1">
      <stop offset="0" stop-color="#ffffff" stop-opacity="0"/>
      <stop offset="0.45" stop-color="#ffffff" stop-opacity="0.13"/>
      <stop offset="1" stop-color="#ffffff" stop-opacity="0"/>
    </linearGradient>
    <filter id="shadow" x="-20%" y="-20%" width="140%" height="140%">
      <feDropShadow dx="0" dy="10" stdDeviation="10" flood-color="#000000" flood-opacity="0.65"/>
    </filter>
  </defs>
  <path d="M30 8H210L229 29V284L196 332H44L11 284V29L30 8Z" fill="url(#bg)" stroke="url(#gold)" stroke-width="4" filter="url(#shadow)"/>
  <path d="M38 22H202L216 37V276L188 316H52L24 276V37L38 22Z" fill="none" stroke="#fff" stroke-opacity="0.10" stroke-width="1.5"/>
  <path d="M-35 318L203 -10H274L36 340Z" fill="url(#shine)"/>
  <path d="M30 8H210L229 29V284L196 332H44L11 284V29L30 8Z" fill="none" stroke="#000" stroke-opacity="0.45" stroke-width="2"/>
</svg>
